<svg xmlns="http://www.w3.org/2000/svg" viewBox="0 0 146.05 161.78"><defs><style>.cls-1{isolation:isolate;}.cls-13,.cls-2{fill:#f4d9bf;}.cls-3,.cls-31{fill:#e3bb94;}.cls-4{fill:#dfefe7;}.cls-10,.cls-34,.cls-5{fill:#006ab0;}.cls-6{fill:#e30613;}.cls-7{fill:#ffa900;}.cls-8{fill:#0096b0;}.cls-10,.cls-13,.cls-19,.cls-26,.cls-31,.cls-33,.cls-34,.cls-36,.cls-38,.cls-9{mix-blend-mode:multiply;}.cls-9{opacity:0.4;}.cls-10,.cls-31{opacity:0.5;}.cls-11{fill:#009a9a;}.cls-12,.cls-36{fill:#efcaa6;}.cls-14{fill:#623f24;}.cls-15{fill:#a06640;}.cls-16{fill:#790613;}.cls-17{fill:#279235;}.cls-18,.cls-19{fill:#cc4509;}.cls-19{opacity:0.6;}.cls-20{fill:#c39368;}.cls-21{fill:#863007;}.cls-22{fill:none;}.cls-23{fill:#fff;}.cls-24{fill:#dde6ec;}.cls-25{fill:#461a00;}.cls-27{fill:#e9e9e9;}.cls-28{fill:#f39f00;}.cls-29{fill:#cc6809;}.cls-30{fill:#e40039;}.cls-32{fill:#00599a;}.cls-33,.cls-36,.cls-37{opacity:0.3;}.cls-34{opacity:0.7;}.cls-35{fill:#a70613;}.cls-38,.cls-42{fill:#900613;}.cls-39{fill:#b16304;}.cls-40{fill:#3c190a;}.cls-41{fill:#f9cbc0;}</style></defs><g class="cls-1"><g id="Calque_2" data-name="Calque 2"><g id="Layer_1" data-name="Layer 1"><path class="cls-2" d="M99.94,113.88S97,127.17,98.87,147.53l-3.67.41s-2.31-22.13,1-34.75Z"/><path class="cls-2" d="M116,113.12a157.43,157.43,0,0,1,6.8,33s1.1,1.9,3.69-.55c0,0-1.88-19.29-6.44-33Z"/><path class="cls-3" d="M99.31,117.66c.34-2.45.63-3.78.63-3.78l-3.78-.69c-.27,1-.49,2.12-.69,3.25A22.6,22.6,0,0,0,99.31,117.66Z"/><path class="cls-4" d="M94.6,139.33c.23,5.06.6,8.61.6,8.61l3.67-.41c-.25-2.77-.41-5.41-.51-7.91A8.69,8.69,0,0,1,94.6,139.33Z"/><path class="cls-4" d="M122,139q.51,3.44.88,7.16s1.1,1.9,3.69-.55c0,0-.28-2.85-.88-7.13A13.64,13.64,0,0,1,122,139Z"/><path class="cls-3" d="M120.88,115.09c-.26-.86-.52-1.72-.8-2.55l-4,.58s.41,1.17,1,3.29C118.35,116,119.62,115.57,120.88,115.09Z"/><path class="cls-5" d="M88,156.81a14.17,14.17,0,0,1-5.92-1.23c0,.55,0,1.14,0,1.77,0,0,8.52,2.81,20.57-.86,0,0,.07-.79.06-1.94C99.62,156.19,93.15,157.07,88,156.81Z"/><path class="cls-5" d="M131.51,156.24c-5.62-.36-8.72-1.75-10.33-2.84,0,1.07,0,1.85,0,1.85s10.26,5.43,21,1.18a8.54,8.54,0,0,0-.14-1.66A24.46,24.46,0,0,1,131.51,156.24Z"/><path class="cls-6" d="M87.5,148.88c-3.83.73-5.38,2.67-5.45,6.7A14.17,14.17,0,0,0,88,156.81a41.51,41.51,0,0,0,6.46-.2C94.48,151,90.53,149.32,87.5,148.88Z"/><path class="cls-7" d="M98.76,146.33l.11,1.2-1.12.13a3,3,0,0,0-3.25-1.36c-2.26.43.06,1.81-5.49,2.36-.54.06-1,.13-1.51.22,3,.44,7,2.08,6.93,7.73a25.32,25.32,0,0,0,8.29-2.06C102.69,151.65,102.17,146.51,98.76,146.33Z"/><path class="cls-6" d="M136.83,148.42c-.46,0-7.07-.23-6.62,7.71.42.05.85.08,1.3.11a24.46,24.46,0,0,0,10.57-1.47A7.7,7.7,0,0,0,136.83,148.42Z"/><path class="cls-7" d="M136.83,148.42a9,9,0,0,0-1.4-.34c-7.09-1.19-6-1.26-6.62-2.05a3.13,3.13,0,0,0-5.23.71,1.42,1.42,0,0,0-1.66-1.28s-.94.41-.88,2.06c0,1.06.1,3.95.14,5.88,1.48,1,4.23,2.26,9,2.73C129.76,148.19,136.37,148.4,136.83,148.42Z"/><path class="cls-5" d="M91.44,148.26s2.37.34,3.16,2,1.94.52,1.61-.42a4.49,4.49,0,0,0-3.27-2.33A1.49,1.49,0,0,0,91.44,148.26Z"/><path class="cls-5" d="M129.14,146.55s-2.34.6-2.71,2.25,1,1.47,1.63.55,2-2.36,3.39-2.1A3.29,3.29,0,0,0,129.14,146.55Z"/><path class="cls-5" d="M94,95.24s-2.53,9.42-3.69,17.17c0,0,7,3.3,13.57,3.26l2.21-8.41,1.73,8.53s9.06.09,15.45-3.68l-3.49-16Z"/><path class="cls-8" d="M121.36,103.62l-1.63-7.48L115.79,96C116.37,99.36,118.46,103.31,121.36,103.62Z"/><path class="cls-8" d="M95.35,102c1.76-1.67,2.59-4.21,3-6.65L94,95.24s-1.09,4-2.16,9A12.53,12.53,0,0,0,95.35,102Z"/><g class="cls-9"><path class="cls-5" d="M101.64,115.57c.73.06,1.46.1,2.19.1l2.19-8.36-.11-3.06S103.25,111.35,101.64,115.57Z"/><path class="cls-5" d="M119.73,96.14,114.86,96c.84,3.88,2.4,11.25,3.68,18.17a22,22,0,0,0,4.68-2Z"/></g><path class="cls-10" d="M120.14,98.05l-.41-1.91L94,95.24s-.27,1-.67,2.62A36.69,36.69,0,0,0,120.14,98.05Z"/><path class="cls-4" d="M103.51,59.59S90.77,59.28,82,73.94l7.3,5.35,4.4-5.61-2.67,22.5S109.3,102.67,122,96l-2.34-21.17,6.29,7.48,7-6.53S121.84,58.45,103.51,59.59Z"/><path class="cls-4" d="M103.51,59.59S90.77,59.28,82,73.94l7.3,5.35,4.4-5.61-2.67,22.5S109.3,102.67,122,96l-2.34-21.17,6.29,7.48,7-6.53S121.84,58.45,103.51,59.59Z"/><path class="cls-2" d="M87.26,76.66s-4.13,4.78-5.7,23.92c0,0,2.3.22,3.25,1.46s2.74,2.7,1.81,3.22-1.56-1.72-3.31-1.66-1.39,1.39-1.39,2.63,1.44,4.75.13,4.68-2.15-4.37-1.81-6c0,0,0-.4-.23-.17a12.8,12.8,0,0,0-.7,4.71c.08,2,0,2.2-.48,2.2s-1-.79-.86-4,.45-3.11.07-2.82A12.33,12.33,0,0,0,76.43,109c-.26,1.45-.8,1.21-1.09.79s0-3,.84-4.52.13-1-.4-.37-1.59,2.78-2.24,2.6.21-2.57,2.18-4.46,2.13-1.81,2.21-2.76S79,82.19,84.52,74.74Z"/><path class="cls-2" d="M128.07,79.67s5,4.55,9.19,23.28a6.46,6.46,0,0,0-2.92,1.28c-1.3.85-2.21,2.53-1.22,2.92s.81-1.16,2.55-1.34,1.57,1.19,1.74,2.42-.78,4.9.51,4.65,1.53-4.62,1-6.19c0,0,0-.4.21-.21a13,13,0,0,1,1.33,4.58c.2,2,.29,2.17.78,2.1s.94-.92.3-4.06-.86-3-.45-2.79a12.14,12.14,0,0,1,2.16,3.89c.46,1.4,1,1.09,1.19.64s-.38-3-1.45-4.37-.26-.93.35-.42,1.95,2.54,2.57,2.27-.55-2.94-2.76-4.55-2.74-.79-3-1.72S137,84,130.52,77.39Z"/><path class="cls-3" d="M85.15,78.88l.65.47a11.83,11.83,0,0,1,1.46-2.69l-2.74-1.92A18.11,18.11,0,0,0,83,77.3C83.71,77.81,84.43,78.34,85.15,78.88Z"/><path class="cls-3" d="M130.63,80c.43-.31.88-.6,1.34-.89a18.3,18.3,0,0,0-1.45-1.74l-2.45,2.28a9.44,9.44,0,0,1,1.1,1.36A14.3,14.3,0,0,1,130.63,80Z"/><path class="cls-11" d="M82,73.94l7.3,5.35,1.08-1.37-7.26-5.74C82.78,72.75,82.41,73.33,82,73.94Z"/><path class="cls-6" d="M106.11,66.08c3.23-.51,4.44-3.69,4.9-5.93a27.79,27.79,0,0,0-7.5-.56,17,17,0,0,0-3.74.49C100.21,62.35,101.65,66.77,106.11,66.08Z"/><path class="cls-11" d="M124.67,80.8l1.26,1.51,7-6.53s-.39-.6-1.14-1.57Z"/><path class="cls-12" d="M102.29,57.62l-.1,3.36s0,3.07,2.62,3.14A3.37,3.37,0,0,0,108.36,61c.42-3.32.17-4,.17-4Z"/><path class="cls-13" d="M102.29,57.62l-.1,3.36s0,3.07,2.62,3.14A3.37,3.37,0,0,0,108.36,61c.42-3.32.17-4,.17-4Z"/><path class="cls-6" d="M106.25,77.68a6.59,6.59,0,0,1-1.24-.12,4.24,4.24,0,0,0-2.29,0,4.42,4.42,0,0,0-2,1.13,3.91,3.91,0,0,0-.84,1.18c-1,2.17-.67,6.18,1.69,9.4,0,0,1.46,2.16,2.77,1.67s1.33-.53,2.58-.08,2.39-.28,3.36-1.44,2.47-5.26,2-7.68-1.65-4.42-3.33-4.39a15.29,15.29,0,0,0-2,.26C106.76,77.65,106.51,77.67,106.25,77.68Z"/><path class="cls-14" d="M105,73.52v0s-.13-.17-.51,0-.34.28-.18.42A1.2,1.2,0,0,0,105,73.52Z"/><path class="cls-15" d="M105,73.52a1.2,1.2,0,0,1-.7.4A8.81,8.81,0,0,1,105.61,79a.59.59,0,0,0,.29.08S106.29,75.29,105,73.52Z"/><path class="cls-16" d="M104.72,78.51s.7,1.36,2.23.12a2.68,2.68,0,0,1-1.2.41A1.9,1.9,0,0,1,104.72,78.51Z"/><path class="cls-17" d="M105.83,77c6.94,1.58,7.82-4.81,7.82-4.81A13.63,13.63,0,0,0,105.83,77Z"/><path class="cls-17" d="M105.83,77a13.63,13.63,0,0,1,7.82-4.81C107.34,70.28,105.83,77,105.83,77Z"/><path class="cls-18" d="M143.69,33.7s-.59-16.37-12.23-21.88a4.13,4.13,0,0,1,2.7-2s-3.41-1-5.46.62c0,0,0-3.86-1-5.13,0,0-.69,2.8-1.24,3.29,0,0-5.73-9.16-20.89-8.55s-25,13.76-25,13.76l1.85,1.74-3.72,1.9a5.76,5.76,0,0,1,.68.62c2.86,2.39,4.07,8,4.78,11.33A79.32,79.32,0,0,1,86.1,39.8a11.66,11.66,0,0,1,1.52-3.65C89.81,32.7,90,27,88.35,25.82l5.67.61c.46-4.79,6.19-7.31,6.19-7.31-3.24,1.9-4.34,8-4.34,8l8.15,1.1c2.35-6.41,6.15-8,6.15-8-2.47,3-3.61,8.37-3.61,8.37l12,1.95a66.09,66.09,0,0,1,2.08-7c.56,2,0,7.27,0,7.27A105.05,105.05,0,0,1,133.24,34c-3,4.79-3.65,13.37-3.65,13.37S138.62,35.25,143,37L141.67,33Z"/><path class="cls-19" d="M97.38,13.83c-10.73,1.89-11.59,10.8-11.59,10.8-1.29-5.54-7.09-7.2-7.09-7.2a5.76,5.76,0,0,1,.68.62c2.86,2.39,4.07,8,4.78,11.33A79.32,79.32,0,0,1,86.1,39.8a11.66,11.66,0,0,1,1.52-3.65C89.81,32.7,90,27,88.35,25.82l1.42.15C88.61,18.25,97.38,13.83,97.38,13.83Z"/><path class="cls-19" d="M136,34.12c1.4-9.87-7.34-17-7.34-17,3.54,6.07,2.4,12.8,1.55,15.94,2,.56,3.08,1,3.08,1-3,4.79-3.65,13.37-3.65,13.37S138.62,35.25,143,37C140.34,34.1,136,34.12,136,34.12Z"/><path class="cls-12" d="M89.62,33.17s.26-2.61-3.49-2.63-5.74,8.52,1.05,7.71Z"/><path class="cls-20" d="M84.51,33.83l.22-.09a2.38,2.38,0,0,1,.64-.1,2.23,2.23,0,0,1,.44,0,2.29,2.29,0,0,1,.48.13,1.9,1.9,0,0,1,.48.27,2.11,2.11,0,0,1,.4.39,1.93,1.93,0,0,1,.29.47,1.88,1.88,0,0,1,.18.5,2.83,2.83,0,0,1,.1.47c0,.15,0,.3,0,.43a1.94,1.94,0,0,1,0,.36c0,.11,0,.2,0,.28l0,.24,0-.24a1.46,1.46,0,0,1,0-.27c0-.1,0-.22-.07-.34a3.69,3.69,0,0,1-.1-.39c0-.14-.1-.28-.14-.42a2.39,2.39,0,0,0-.2-.43,1.62,1.62,0,0,0-.25-.39,2,2,0,0,0-.32-.33l-.18-.14-.2-.11a2.66,2.66,0,0,0-.39-.16,2,2,0,0,0-.39-.09,2.94,2.94,0,0,0-.6-.06Z"/><path class="cls-12" d="M130,42.19s1.9-3.32,4.74-2.07.37,9.29-6.17,7.59Z"/><path class="cls-20" d="M133.67,43.74a1.93,1.93,0,0,0-.82-.1,3.1,3.1,0,0,0-.39.06,3.84,3.84,0,0,0-.41.13,3.3,3.3,0,0,0-.43.19,3.5,3.5,0,0,0-.42.24,4.15,4.15,0,0,0-.41.27c-.14.09-.26.2-.39.29l-.35.29-.32.26c-.37.34-.65.55-.65.55l.12-.2a4.73,4.73,0,0,1,.35-.52,5.82,5.82,0,0,1,.6-.67,3.9,3.9,0,0,1,.38-.33c.15-.1.28-.22.44-.31a2.64,2.64,0,0,1,.47-.25,2.22,2.22,0,0,1,.49-.18,2.83,2.83,0,0,1,.48-.08,2.22,2.22,0,0,1,.45,0,1.49,1.49,0,0,1,.61.21A.68.68,0,0,1,133.67,43.74Z"/><path class="cls-2" d="M133.24,34a105.05,105.05,0,0,0-12.64-3.25s.57-5.28,0-7.27a66.09,66.09,0,0,0-2.08,7l-12-1.95s1.14-5.39,3.61-8.37c0,0-3.8,1.57-6.15,8l-8.15-1.1s1.1-6.06,4.34-8c0,0-5.73,2.52-6.19,7.31l-5.67-.61C90,27,89.81,32.7,87.62,36.15a11.57,11.57,0,0,0-1.8,6.91,19.24,19.24,0,0,0,4.67,7.73c3.35,3.42,11.05,8.3,17.55,7.85s18.43-3.84,21.55-11.27C129.59,47.37,130.24,38.79,133.24,34Z"/><path class="cls-21" d="M95.79,14.67a14.28,14.28,0,0,0-1.69.76c-.27.13-.54.29-.81.44s-.52.32-.78.48l-.75.53c-.24.18-.47.38-.71.57a8,8,0,0,0-.68.61l-.34.31-.31.33a7.68,7.68,0,0,0-.59.69l-.56.72-.49.77a7.59,7.59,0,0,0-.44.79c-.12.28-.28.54-.39.83l-.32.85a5.24,5.24,0,0,0-.26.88l-.23.89L86.37,25c.66.27,1.33.53,2,.82-.69-.19-1.36-.41-2-.61l-.09,0,0-.09.18-.92a4.63,4.63,0,0,1,.21-.91l.29-.9a9.37,9.37,0,0,1,.38-.86,5.11,5.11,0,0,1,.43-.84l.49-.8.58-.75a8.17,8.17,0,0,1,.62-.7l.33-.34.34-.32c.24-.2.46-.43.72-.61s.5-.38.76-.55.52-.34.79-.5l.83-.44a9.1,9.1,0,0,1,.84-.39A11.49,11.49,0,0,1,95.79,14.67Z"/><path class="cls-22" d="M100.09,19.17l-.14.11.26-.16Z"/><path class="cls-18" d="M100,19.28a6.27,6.27,0,0,0-1.35,1.28A12.07,12.07,0,0,1,100,19.28Z"/><path class="cls-19" d="M92.25,26.24l1.77.19c.42-4.39,5.26-6.87,6.07-7.26a8.57,8.57,0,0,1,2.47-1.4C95.54,18.74,93.09,23.5,92.25,26.24Z"/><path class="cls-19" d="M100.82,27.75l3.2.43c2.14-5.85,5.5-7.67,6.07-7.94a23.52,23.52,0,0,1,4.77-3.71C106.48,16.81,102.27,24.4,100.82,27.75Z"/><path class="cls-19" d="M119.68,16.82A48.63,48.63,0,0,1,115.13,30l3.4.56a56.55,56.55,0,0,1,1.93-6.58A26.07,26.07,0,0,0,119.68,16.82Z"/><path class="cls-21" d="M133.24,34l.72.18c.23.06.47.11.7.18l-.15.09c.08-.68.14-1.37.16-2.05,0-.34,0-.69,0-1s0-.68,0-1,0-.68-.09-1-.1-.67-.16-1l-.12-.5a3.94,3.94,0,0,0-.14-.49,4,4,0,0,0-.16-.49c-.07-.16-.14-.32-.2-.48.1.14.19.29.29.44a3.33,3.33,0,0,1,.24.46,4.31,4.31,0,0,1,.22.49c.06.16.12.33.17.49l.14.52a4.35,4.35,0,0,1,.1.52,9.41,9.41,0,0,1,.13,1.05c0,.35,0,.7,0,1.05s0,.71,0,1.06a12.08,12.08,0,0,1-.34,2.07l0,.14-.13,0-.67-.29C133.69,34.2,133.46,34.11,133.24,34Z"/><path class="cls-23" d="M96.85,46.33a32.33,32.33,0,0,0,21,1.29s-2.73,6.94-12.34,5.75S96.85,46.33,96.85,46.33Z"/><path class="cls-20" d="M106.44,40.53a2.3,2.3,0,0,0-.34,0,5.33,5.33,0,0,0-.87,0,3.53,3.53,0,0,0-.55.1,1.5,1.5,0,0,0-.52.26.84.84,0,0,0-.26.49,1.06,1.06,0,0,0,0,.31v0s0,0,0,0l0,.09,0,.18c0,.11.07.19.1.28a2.53,2.53,0,0,0,.18.27,2.45,2.45,0,0,0,.47.44,4.79,4.79,0,0,0,1.07.56,6.74,6.74,0,0,0,.83.28l.33.09a3.18,3.18,0,0,1-.35,0,5.74,5.74,0,0,1-.89-.13,3.72,3.72,0,0,1-.58-.17,3.06,3.06,0,0,1-.63-.31,2.4,2.4,0,0,1-.58-.49,2.88,2.88,0,0,1-.23-.34,3.25,3.25,0,0,1-.15-.4l0-.18v-.09a.26.26,0,0,0,0-.07v0a1.89,1.89,0,0,1,0-.41,1.16,1.16,0,0,1,.44-.71,1.62,1.62,0,0,1,.68-.27,2.23,2.23,0,0,1,.62,0,4.15,4.15,0,0,1,.9.14A2.54,2.54,0,0,1,106.44,40.53Z"/><path class="cls-21" d="M97.06,30.56s1.32-2,2.8-1.45,1.74,3.23,1.74,3.23S100.33,28.17,97.06,30.56Z"/><path class="cls-21" d="M119.68,33.84s-.86-2.3-2.43-2-2.39,2.79-2.39,2.79S117,30.79,119.68,33.84Z"/><path class="cls-24" d="M97.85,49l.77.24.89.26c.34.09.73.2,1.16.3s.89.22,1.38.32,1,.18,1.56.29l1.67.24c.57.05,1.15.14,1.73.16s1.17.08,1.74.07l.86,0,.83,0,.81,0,.77-.07a13.66,13.66,0,0,0,1.4-.18l1.18-.2.9-.21.79-.19-.76.27-.89.29c-.35.09-.74.19-1.18.28a12.8,12.8,0,0,1-1.41.25l-.77.12-.82.06-.84.06h-.87c-.58,0-1.17,0-1.77-.06s-1.17-.12-1.76-.18-1.14-.19-1.68-.28-1.07-.23-1.56-.36L100.6,50c-.42-.12-.8-.27-1.14-.38l-.87-.34C98.11,49.13,97.85,49,97.85,49Z"/><path class="cls-25" d="M100.4,35.53c-.32,1.34-1.05,2.31-1.64,2.17S98,36.36,98.27,35s1.06-2.31,1.64-2.17S100.72,34.19,100.4,35.53Z"/><path class="cls-23" d="M99.42,34.22c-.13.4-.37.68-.54.62s-.21-.43-.08-.82.37-.68.54-.62S99.55,33.83,99.42,34.22Z"/><path class="cls-25" d="M117.92,38.26c-.32,1.34-1,2.31-1.64,2.18s-.8-1.34-.49-2.68,1-2.31,1.64-2.18S118.24,36.92,117.92,38.26Z"/><path class="cls-23" d="M116.94,37c-.13.4-.37.67-.54.61s-.21-.42-.09-.82.38-.67.55-.61S117.07,36.56,116.94,37Z"/><g class="cls-26"><path class="cls-27" d="M114.25,67c2,10,1.87,24,1.62,31.19A25,25,0,0,0,122,96l-2.33-21.06A29.59,29.59,0,0,0,114.25,67Z"/><path class="cls-27" d="M87.19,77.71l2.15,1.58,4.4-5.61,0,.33a31.73,31.73,0,0,1,3.12-7A49.13,49.13,0,0,0,87.19,77.71Z"/><path class="cls-27" d="M107.37,59.62c12.9,2.4,20.73,15,22.82,18.75L133,75.78S123.39,60.87,107.37,59.62Z"/></g><path class="cls-2" d="M32.25,67.16a18.64,18.64,0,0,0,1,3.63s-9.91,3.78-11.75,2.68-5.48-6-5.48-6a3.21,3.21,0,0,1-2.31-2.09,8.28,8.28,0,0,0-2.52-3.93c-.75-.48-1.2-1.13-.72-1.2a4,4,0,0,1,3,1.78,4.31,4.31,0,0,0-.95-2c-.86-1.07-1.72-2.75-.84-2.75s2.72,2.38,3.38,3.57l.06.1c.61,1.16-.4-2.92-1.42-4.49s.53-1.75,1.18-.82a11.34,11.34,0,0,1,1.68,4.59s.61-2.32.85-4,1.2-1.25,1.27-.28-.17,3.61-.24,4.61a14.43,14.43,0,0,0,.17,2.53,11.79,11.79,0,0,1,1.4-.75c.79-.34.76-1.52,1.74-1.2s-.43,1.73-.61,2.66-.1,2.44-2.19,2.2c0,0,2,4.06,3.56,4.72S32.25,67.16,32.25,67.16Z"/><path class="cls-20" d="M16.66,66.59s.12-.24.27-.58l.27-.59c.1-.21.2-.43.32-.65s.23-.43.35-.62l.19-.26.19-.23a1.41,1.41,0,0,1,.18-.17.58.58,0,0,1,.15-.13l.14-.11-.18,0a.63.63,0,0,0-.2.06,1.93,1.93,0,0,0-.24.13,2.61,2.61,0,0,0-.52.45c-.07.1-.16.2-.23.31a3.79,3.79,0,0,0-.2.34,4.75,4.75,0,0,0-.44,1.36A3.77,3.77,0,0,0,16.66,66.59Z"/><path class="cls-28" d="M1.59,89.77a3.85,3.85,0,0,0,.81,1.82c.49.5,1,1,1.75.93S5.68,91,6,90.44c.61-1,0-1.93-.75-2.65,0,0,0,0,0-.05a1.53,1.53,0,0,0-1.46-.86A2.33,2.33,0,0,0,2.06,88,2.3,2.3,0,0,0,1.59,89.77Z"/><path class="cls-29" d="M2.54,88.1c.3.31,1,1.1,1.5,1.1s1.07-1.15,1.23-1.4A2.29,2.29,0,0,0,5.74,86a5.84,5.84,0,0,0-1.18-1.9.07.07,0,0,0-.12,0c-.55-.48-1.26-.39-1.95.36A2.58,2.58,0,0,0,2.54,88.1Z"/><path class="cls-28" d="M1.17,97.52a6.78,6.78,0,0,0,.49,3.57c0,.09.18.16.24,0a10.42,10.42,0,0,0,.45-1.47,7.18,7.18,0,0,0,1,3,11.51,11.51,0,0,0,1.87,2.75,6.84,6.84,0,0,0,1.91,1.69c.13.06.21,0,.18-.17-.23-.76-.5-1.51-.75-2.27A6.47,6.47,0,0,1,7.17,106,12.42,12.42,0,0,0,7.84,108c0,.07.14.15.2.06a8.18,8.18,0,0,0,1.45-5.28,6,6,0,0,0-.71-2.22c.46.19,1.2.69,1.73.62a.16.16,0,0,0,.15-.2c-.1-.85-.87-1.49-1.29-2.19A5,5,0,0,0,8.3,97.65a7.59,7.59,0,0,0,1.27.71.14.14,0,0,0,.19-.13,6.73,6.73,0,0,0-1.49-3.5,6.38,6.38,0,0,0-2.45-2,3.76,3.76,0,0,0-1.14-.43c-.95-.21-1.87.82-2.27,1.53A8.57,8.57,0,0,0,1.17,97.52Z"/><path class="cls-28" d="M3.1,85.37c.49.34.86.95,1.38.37A5.68,5.68,0,0,0,6,83.66a2.46,2.46,0,0,0-.43-1.89c-.28-.42-.66-1.2-1.19-1.42-.87-.67-1.91.14-2.56,1.23C1,83,1.93,84.56,3.1,85.37Z"/><path class="cls-29" d="M1,78.72a3,3,0,0,0,1.21,2.16c.41.41,1,1.45,1.69,1.27s1.48-1.23,1.92-1.87S6,79.1,5.62,78.35A6.71,6.71,0,0,0,5,77.21c-.52-1-1.42-2-2.41-.91C2,76.9,1,77.82,1,78.72Z"/><path class="cls-28" d="M1.63,75.15c0,.84,2,3.41,2.43,3.25A7.78,7.78,0,0,0,6.35,77c1.06-.89.61-2.19-.11-3.21-.6-1.4-1.77-2.37-3.25-1.1A3.45,3.45,0,0,0,1.63,75.15Z"/><path class="cls-29" d="M2.73,71.11c-.14,1,.4,1.62.87,2.51.19.35.51,1.14,1,1a5.47,5.47,0,0,0,2.75-1.34c.77-.75.1-2.16-.35-3.12-.06-.14-.12-.28-.19-.41a.93.93,0,0,1,0-.1s0,0,0,0a1.48,1.48,0,0,0-.64-.54,2.25,2.25,0,0,0-1.9.14A3.1,3.1,0,0,0,2.73,71.11Z"/><path class="cls-28" d="M4.71,69.88c.16.4.19,1.27.73,1.37a11.64,11.64,0,0,0,3-.3c1.52-.2,1.3-2.17,1-3.43-.28-1.63-1.47-2.32-3.15-1.79C4.22,66.35,4,68.09,4.71,69.88Z"/><path class="cls-29" d="M7.42,68.36a22,22,0,0,0,3.43.32c.73,0,1-.24,1.11-1a18.25,18.25,0,0,0,.29-2.08,11.52,11.52,0,0,0-.19-1.42s0,0,0,0v.12c0-.11-.08-.24-.13-.35-.33-.73-1.18-.9-1.88-1s-2.21-.16-2.62.46C6.82,64.29,6.8,68.12,7.42,68.36Z"/><path class="cls-28" d="M9.91,66.39a4.92,4.92,0,0,0,1,.32,6.19,6.19,0,0,0,1.33.34c.64.12,1.55.26,2-.35a2.59,2.59,0,0,0,.29-1.16c.06-.47.22-.91.26-1.38,0,0,0,0-.05,0l-.08.07A2.11,2.11,0,0,0,14.45,63,2,2,0,0,0,13,62c-.79-.06-1.7-.4-2.44.12-.59.41-.7,1.49-.77,2.13S9.38,66,9.91,66.39Z"/><path class="cls-29" d="M12.88,63.88a.19.19,0,0,0,.09.18c1.08.63,2.63,1.41,3.9,1,.48-.17.79-.86.93-1.31a1.42,1.42,0,0,0,.07-.22,2.18,2.18,0,0,0,.2-2.07c-.35-.76-1.68-.93-2.39-1-1-.15-1.67-.16-2.19.81A7.64,7.64,0,0,0,12.88,63.88Z"/><path class="cls-28" d="M16.63,63.21c.07.41,1.33.55,1.6.6a10.7,10.7,0,0,0,1.39.06c.29,0,.74,0,.93-.28a5.2,5.2,0,0,0,.69-2.76s0-.06-.06,0,0,0,0,0a2.12,2.12,0,0,0-1.81-1.66A1.94,1.94,0,0,0,16.79,61,7.71,7.71,0,0,0,16.63,63.21Z"/><path class="cls-29" d="M19.44,59.51c0,.63-.16,1.68.24,2.24s1.69.61,2.3.7c1.61.25,2.07-1.05,2.18-2.35.36-1.26-.47-2.22-1.8-2.62a3,3,0,0,0-2.21.17A2,2,0,0,0,19.44,59.51Z"/><path class="cls-28" d="M22.2,59.8c.14.39,1.77.5,2.13.56.61.09,1.69.39,2.17-.21a3.5,3.5,0,0,0,.55-1.07,2,2,0,0,0,.58-1.76A2,2,0,0,0,26.21,56c-1.24-.34-3.64-.27-3.91,1.35A5.22,5.22,0,0,0,22.2,59.8Z"/><path class="cls-29" d="M24.89,57.62a.33.33,0,0,0,.23.33c1.2.47,3.08.92,4.31.35a2.57,2.57,0,0,0,1.1-1.64,1.71,1.71,0,0,0,.24-1.23.28.28,0,0,0,0-.09s0,0,0,0c-.35-1.32-2.29-2.27-3.53-2.49C24.25,52.3,24.89,55.78,24.89,57.62Z"/><path class="cls-30" d="M4.41,92.08s2.14-2.72,3.38-2.61,2.27,4.2.72,4.53-4.1-1.23-4.1-1.23-2.56,3.59-3.26,2.89S-.56,91.38.38,91.18,4.41,92.08,4.41,92.08Z"/><path class="cls-28" d="M65.86,103.38c0,.68,0,1.34,0,2a.79.79,0,0,0,.09.48s.11.06.14,0a5.5,5.5,0,0,1,1-1.86,1.8,1.8,0,0,1,.2-.19,6,6,0,0,0-.55,4.08A5.87,5.87,0,0,0,69,111.58c.08.08.2,0,.16-.12a4.73,4.73,0,0,1-.33-1.38,3.42,3.42,0,0,0,.26.59,3.2,3.2,0,0,0,3.43,1.75.07.07,0,0,0,0-.13c-1.56-1.31-.77-2.73-.29-4.3a4.59,4.59,0,0,0,0-2.44s0-.08,0-.13a4,4,0,0,1,.6,1.77c0,.13.21.2.26.07a6,6,0,0,0-.64-4.53,13,13,0,0,0-3.89-3.92s0,0,0,0l0,0-.2-.12c-.65-.33-1.48.63-1.76,1.09A7.22,7.22,0,0,0,65.86,103.38Z"/><path class="cls-29" d="M66.25,95.83c-.06.53,1.74,2.73,2.21,2.46a4,4,0,0,0,1.62-1.46,2.41,2.41,0,0,0-.51-2c-.45-.94-1.26-2.2-2.11-1.07C67,94.47,66.35,95,66.25,95.83Z"/><path class="cls-28" d="M67.94,96c0,.08.14.18.25.14a5.64,5.64,0,0,0,1.63-1.29c.25-.24.73-.61.77-1a3.44,3.44,0,0,0-1.08-2.31s0,0,0-.06c-.62-1.61-2.12-.92-2.85.23C65.63,93.41,67.25,94.6,67.94,96Z"/><path class="cls-29" d="M66.61,90.75c.45.49.88,1,1.31,1.48a.55.55,0,0,0,.42.27c.44.09,1.21-.51,1.55-.76a1.21,1.21,0,0,0,.61-1.37,4.75,4.75,0,0,0-.65-1.81c-.35-.83-1.09-1.55-2-.76S65.63,89.68,66.61,90.75Z"/><path class="cls-28" d="M66.49,87a6.76,6.76,0,0,0,1.09,1.94c.17.22.56,1.07.92,1.07.55,0,1.2-.67,1.61-1a2.56,2.56,0,0,0,1.15-1.3c.26-.83-.29-1.91-.74-2.79-.16-.68-.38-1.48-1.18-1.6a1.43,1.43,0,0,0-1.61.75C67,84.71,66.19,86.08,66.49,87Z"/><path class="cls-29" d="M66.39,83.42a2.38,2.38,0,0,0,1.18,1.79c.33.23,1.08,1.08,1.57.94a8.4,8.4,0,0,0,1.92-1.63c.74-1.12.2-1.94-.49-2.8-.69-1.08-1.71-1.94-2.87-.71A3.92,3.92,0,0,0,66.39,83.42Z"/><path class="cls-28" d="M66.45,79.71a3,3,0,0,0,1.14,2.1c.32.29,1.09,1.36,1.61,1.21a4.71,4.71,0,0,0,2.15-1.9,2.08,2.08,0,0,0,.22-2.25,4.5,4.5,0,0,0-1.13-1.67,2.13,2.13,0,0,0-1.35-.79,1.65,1.65,0,0,0-1.75.73A5,5,0,0,0,66.45,79.71Z"/><path class="cls-29" d="M67.2,77.09l1.23,1.18c.14.15.23.36.43.44.65.26,1.74-.52,2.32-.8,1.27-.61.85-2,.21-3.1a1.8,1.8,0,0,0-.93-1.27,3.43,3.43,0,0,0-2.44.09c-.69.26-1,1.36-1.27,2S66.69,76.59,67.2,77.09Z"/><path class="cls-28" d="M66.57,73.1c.08.75.49,1,1.12,1.37s.93.73,1.43,1a.46.46,0,0,0,.41,0,5.49,5.49,0,0,0,2.27-1.78,1.25,1.25,0,0,0,.14-1.6,5.93,5.93,0,0,0-1.7-2s0,0,0,0a2.13,2.13,0,0,0-2.88.58A4,4,0,0,0,66.57,73.1Z"/><path class="cls-29" d="M66,70c.16.38.64.65.94.88s.68.59,1,.82,1,1.15,1.51.8a16.33,16.33,0,0,0,2.23-2c.9-.91-.68-2.58-1.81-3.53a1.62,1.62,0,0,0-1.39-.85,1.82,1.82,0,0,0-1.66,1.13c-.23.64-.44,1.28-.66,1.92C66.1,69.37,65.88,69.71,66,70Z"/><path class="cls-28" d="M65.79,66c0,.62.64,1,1.09,1.31s.88.81,1.34,1.08c.16.1.21.16.37.07a15.17,15.17,0,0,0,2.22-1.87c1.22-1,.18-2-.63-3a.11.11,0,0,0,0-.11c-.7-1.21-2.63-1.91-3.33-.28A7.74,7.74,0,0,0,65.79,66Z"/><path class="cls-29" d="M66.11,63.61a11.48,11.48,0,0,0,1.18.9,5.61,5.61,0,0,0,1.14.75c.72.19,1.45-.81,1.83-1.28.57-.69,1.09-1.07.71-2a5.34,5.34,0,0,0-.83-1.39A2.15,2.15,0,0,0,68.59,59c-.4-.11-1.46-.09-1.74.32C66.06,60.5,64.6,62.4,66.11,63.61Z"/><path class="cls-28" d="M65.41,59.56c.94.74,1.93,1.47,2.8,2.29a.17.17,0,0,0,.14,0,4.42,4.42,0,0,0,1.33-1.26c.36-.4,1.09-.93,1.14-1.52s-.36-1-.6-1.3a6,6,0,0,0-.59-.72c-.5-.79-1.26-1.88-2.37-1.65A1.73,1.73,0,0,0,65.64,57C65.45,57.61,64.71,59,65.41,59.56Z"/><path class="cls-29" d="M64.23,55.17c.06.77,1,1.61,1.61,2,.4.27,1.75,1.4,2.32,1.12a5.62,5.62,0,0,0,2-2.29c.5-.91.16-1.64-.28-2.53a3.1,3.1,0,0,0-1.32-1.36,2.46,2.46,0,0,0-3.42.57A3.32,3.32,0,0,0,64.23,55.17Z"/><path class="cls-28" d="M63.58,52.37c0,.82.52,1,1.22,1.32s1.15.49,1.7.79c.08,0,.51.31.69.26.34-.1.52-.68.68-1s.45-.77.65-1.17a2.78,2.78,0,0,0,.28-2.56c-.29-.61-1-.91-1.55-1.29a2.23,2.23,0,0,0-1.36-.94c-.86,0-1.18.61-1.47,1.31A8.54,8.54,0,0,0,63.58,52.37Z"/><path class="cls-29" d="M62.44,49.49A3.44,3.44,0,0,0,64.38,51c.52.23,1.84,1,2.35.46A7.41,7.41,0,0,0,68.14,49a1.91,1.91,0,0,0-.38-2.13,5.82,5.82,0,0,0-1.34-1.09l-.48-.26c-.39-.54-.72-.82-1.43-.67s-1.33,1.58-1.67,2.07A3.29,3.29,0,0,0,62.44,49.49Z"/><path class="cls-30" d="M68.52,98.25s2.93-1.84,4.06-1.32.72,4.71-.85,4.5-3.45-2.54-3.45-2.54-3.62,2.52-4,1.63S64.07,95.91,65,96,68.52,98.25,68.52,98.25Z"/><path class="cls-2" d="M52,111.86s.68,6.16,1.16,13.76,1.24,25.75,1.24,25.75.54,1.92-1.2,2-2.3-1.17-2.3-3-2.12-29.85-4-37.12Z"/><path class="cls-2" d="M33.68,111s-4.66,35.33-5.75,39a2,2,0,0,1-2,.55c-1.16-.34-.89-2.26-.89-2.53s4-37.73,4-37.73Z"/><path class="cls-4" d="M54.1,145.11c.16,3.66.27,6.26.27,6.26s.54,1.92-1.2,2-2.3-1.17-2.3-3c0-.38-.1-2-.27-4.39A15,15,0,0,0,54.1,145.11Z"/><path class="cls-4" d="M25.56,143.11c1.14.34,2.3.65,3.46.93-.47,3-.86,5.13-1.09,5.89a2,2,0,0,1-2,.55c-1.16-.34-.89-2.26-.89-2.53C25.05,147.89,25.25,146,25.56,143.11Z"/><path class="cls-31" d="M47.72,117.64c-.28-1.79-.55-3.29-.82-4.35L52,111.86s.22,2,.5,5.19A14.69,14.69,0,0,1,47.72,117.64Z"/><path class="cls-31" d="M28.56,115.21c.32-3,.53-5,.53-5l4.59.75s-.27,2.09-.71,5.3C31.49,116,30,115.63,28.56,115.21Z"/><path class="cls-11" d="M52.24,152.4s1.58-2.19,3.7-1.09,3.08,2.94,5.48,3.42,5.68-.21,7.33,1.3a5.07,5.07,0,0,1,1.41,3.3A11.86,11.86,0,0,1,65,160.69a32.78,32.78,0,0,1-14.31-2.9v-5.6S51.32,151.44,52.24,152.4Z"/><path class="cls-32" d="M65,160.69a11.86,11.86,0,0,0,5.18-1.36,6.34,6.34,0,0,1,0,.95s-1.91,2.26-9.93,1.23-9.58-2.81-9.58-2.81v-.91A32.78,32.78,0,0,0,65,160.69Z"/><path class="cls-32" d="M21.08,157.81a34.41,34.41,0,0,0,8.3-1.68c0,.61,0,1,0,1s.15.61-7.24,1.43a26.53,26.53,0,0,1-12.53-1.43,3.93,3.93,0,0,1,0-.9A33.35,33.35,0,0,0,21.08,157.81Z"/><path class="cls-11" d="M9.54,156.23a3,3,0,0,1,2.84-2.87c2.13-.2,8-2.74,9-3s1.44-1.8,3.15-2.27,2.75,2.27,2.75,2.27,1-2.16,1.64-1.32c.49.65.46,5.08.42,7.09a34.41,34.41,0,0,1-8.3,1.68A33.35,33.35,0,0,1,9.54,156.23Z"/><path class="cls-5" d="M52.79,94.11s2.74,5.15,5,16.58c0,0-4.93,5.62-20.14,3.77s-16.29-8.08-16.29-8.08,7.46-14.45,10.82-16.92Z"/><g class="cls-33"><path class="cls-5" d="M21.36,106.38s7.46-14.45,10.82-16.92l5.47,1.24A118.24,118.24,0,0,0,30,112.88C22.06,110.33,21.36,106.38,21.36,106.38Z"/></g><path class="cls-34" d="M30.59,91.1a9,9,0,0,1,1.59-1.64l20.61,4.65s.31.59.82,1.81C50.43,96.27,38.83,97,30.59,91.1Z"/><path class="cls-6" d="M50.25,58.46a16.78,16.78,0,0,1,7.06,5.25A62.35,62.35,0,0,1,62.5,71s-1.56,3.7-4.44,4.93L56.38,73s1.41,13.9,1,21.57a40.37,40.37,0,0,1-28.29-5.07s5.62-15.61,8-19.11l-2.88,1.72S32,69.53,31.9,66.86c0,0,10.48-6.62,14.52-7.66Z"/><path class="cls-35" d="M39.39,66.75l-.13.25-.12.24c-.14.26-.29.53-.45.8-.06.11-.12.22-.19.33l-.14.25c-.31.49-.62,1-.94,1.44l-.38.51c-.1.14-.17.22-.17.22a2.55,2.55,0,0,1,.1-.26l.29-.66c.26-.54.63-1.24,1-1.93s.83-1.36,1.17-1.85c.17-.25.33-.44.43-.58l.1-.13C39.8,65.85,39.61,66.31,39.39,66.75Z"/><path class="cls-35" d="M56.13,72.36c-.14-.79-.29-1.58-.47-2.38-.11-.48-.2-1-.3-1.47l.1.29c.12.35.23.73.34,1.11s.2.76.28,1.12.14.71.18,1,.07.54.09.71l0,.28-.11-.26C56.24,72.66,56.18,72.53,56.13,72.36Z"/><path class="cls-4" d="M51.35,65.76c-2.6,1.44-3.22-2.47-3.22-2.47s-1.71,3.36-3.7,1.85c-1.33-1-1.43-3.58-1.35-5.17a21,21,0,0,1,3.34-1.33l3.83-.73a14.07,14.07,0,0,1,3.56,1.94C53.64,61.76,53.09,64.8,51.35,65.76Z"/><path class="cls-2" d="M62.29,102.93s.35-17.58-3.3-27.47A8.16,8.16,0,0,0,61.4,73c.1.33,5,15.39,3.39,30.52,0,0,.53,1.39.3,1.75,0,0,2.61,4,2,4.39s-.68.19-1.19-.69-1.34-2.72-1.23-2.16.24,4.88-.65,4.37-.38-5-.64-4.62-.77,5.24-1.69,4.31.46-5.55-.11-4.72-2,4.46-2.46,3.18,2.16-4.88,1.33-4.88-2.58.72-2.7-.15S59.79,102.33,62.29,102.93Z"/><path class="cls-12" d="M50.8,55.15v4.59s.17,3-1.42,3.43A2.63,2.63,0,0,1,46,60.7c.07-1.78,0-4.21,0-4.21Z"/><path class="cls-36" d="M50.8,55.15v4.59s.17,3-1.42,3.43A2.63,2.63,0,0,1,46,60.7c.07-1.78,0-4.21,0-4.21Z"/><g class="cls-37"><path class="cls-38" d="M59.91,74.73A6.39,6.39,0,0,1,58.06,76L56.38,73a41.4,41.4,0,0,0-2.1-7.65A41.48,41.48,0,0,1,59.91,74.73Z"/><path class="cls-38" d="M37.05,70.37l-.24.23-2.58,1.54A13.63,13.63,0,0,1,33,70.3c2.42-1.67,7.74-6.16,7.74-6.16Z"/></g><path class="cls-28" d="M31.39,11.42s6.46-8.83,23.18-.19,20.88,31.16,5,41.29c6.55-7.77,4.35-12.69,2-17a16.75,16.75,0,0,1-1.57-9.31C52.94,28,44.2,23.54,44.2,23.54c2.29,2.55,6.55,3.6,6.55,3.6C41,27.78,37.5,21,37.5,21c-.08,3.22,5,8.91,5,8.91-5.64-1-7.83-7-7.83-7-.06,7.07-4.79,10-4.79,10,1.63-2.77.82-7,.82-7-.82,5-7.73,10.8-7.73,10.8,2,2.27,4.2,12,4.71,14.6s5.05,5.11,5.05,5.11-9.35-.43-15-10.38S13.62,15.37,31.39,11.42Z"/><path class="cls-28" d="M31.39,11.42s6.46-8.83,23.18-.19,20.88,31.16,5,41.29c6.55-7.77,4.35-12.69,2-17a16.75,16.75,0,0,1-1.57-9.31C52.94,28,44.2,23.54,44.2,23.54c2.29,2.55,6.55,3.6,6.55,3.6C41,27.78,37.5,21,37.5,21c-.08,3.22,5,8.91,5,8.91-5.64-1-7.83-7-7.83-7-.06,7.07-4.79,10-4.79,10,1.63-2.77.82-7,.82-7-.82,5-7.73,10.8-7.73,10.8,2,2.27,4.2,12,4.71,14.6s5.05,5.11,5.05,5.11-9.35-.43-15-10.38S13.62,15.37,31.39,11.42Z"/><path class="cls-29" d="M63.12,38.61c.06.13.11.28.16.42Z"/><path class="cls-29" d="M26.1,44.9h0c-.08-.32-.17-.63-.25-.94C25.94,44.27,26,44.58,26.1,44.9Z"/><path class="cls-29" d="M26.33,45.74c-.08-.25-.15-.53-.23-.83C26.18,45.18,26.25,45.47,26.33,45.74Z"/><path class="cls-29" d="M62.12,24.4c-1.88,5.32.37,12.42,1,14.21a27,27,0,0,0-1.47-3.12,16.75,16.75,0,0,1-1.57-9.31c-6.11,1.51-13.4-1.5-15.37-2.4a28.12,28.12,0,0,1-3.34-3.1A28.59,28.59,0,0,0,62.12,24.4Z"/><path class="cls-29" d="M37.38,18.82c3.61,7.66,13.37,8.32,13.37,8.32C41,27.78,37.5,21,37.5,21h0A8.91,8.91,0,0,1,37.38,18.82Z"/><path class="cls-29" d="M20.83,36.77A23.17,23.17,0,0,0,31.19,19.59C34.2,27.67,29.83,33,29.83,33c1.63-2.77.82-7,.82-7-.82,5-7.73,10.8-7.73,10.8,1,1.13,2.07,4.14,2.93,7.18A13.87,13.87,0,0,0,20.83,36.77Z"/><path class="cls-29" d="M42.45,29.94c-5.28-.93-7.53-6.23-7.8-6.91-.07-1.35-.07-2.44-.07-2.44C36.1,27.07,42.45,29.94,42.45,29.94Z"/><path class="cls-12" d="M60.83,34.06s.48-2.64,2.86-2,2.55,6.68-.66,6.79A42.05,42.05,0,0,0,60.83,34.06Z"/><path class="cls-20" d="M64.05,34.34a1.8,1.8,0,0,0-.5.12,3.07,3.07,0,0,0-.48.24,2.48,2.48,0,0,0-.49.38,2.41,2.41,0,0,0-.21.24,1.53,1.53,0,0,0-.17.27,1.48,1.48,0,0,0-.17.53,1.76,1.76,0,0,0,0,.23.65.65,0,0,0,0,.16,1.31,1.31,0,0,1,0,.14l0-.14s0-.09,0-.15l.07-.18.1-.2c0-.06.09-.13.14-.2a3.51,3.51,0,0,1,.37-.41,3.69,3.69,0,0,1,.41-.38l.38-.32C63.9,34.48,64.05,34.34,64.05,34.34Z"/><path class="cls-12" d="M25.94,43s-1.3-1.73-2.87-.5-1.18,3.78.48,5a4.56,4.56,0,0,0,3.7.55S26.14,43.7,25.94,43Z"/><path class="cls-20" d="M26.73,46a2.28,2.28,0,0,0-.42-.44,3,3,0,0,0-.51-.36,4.45,4.45,0,0,0-.66-.31,3.08,3.08,0,0,0-.71-.14,2,2,0,0,0-.34,0,2.53,2.53,0,0,0-.3,0,1.86,1.86,0,0,0-.43.13l-.15.08h.16l.43,0,.27,0c.1,0,.2.05.3.06l.32.08.32.11c.43.14.85.32,1.18.46Z"/><path class="cls-2" d="M27.63,51.39c-.51-2.58-2.67-12.33-4.71-14.6,0,0,6.91-5.85,7.73-10.8,0,0,.81,4.24-.82,7,0,0,4.73-3,4.79-10,0,0,2.19,6,7.83,7,0,0-5-5.69-5-8.91,0,0,3.53,6.75,13.25,6.11,0,0-4.26-1.05-6.55-3.6,0,0,8.74,4.41,15.88,2.64a16.75,16.75,0,0,0,1.57,9.31c2.31,4.34,4.51,9.26-2,17l-.32.21A20.63,20.63,0,0,1,45.37,59.1c-8.89.43-12.69-2.6-12.69-2.6S28.14,54,27.63,51.39Z"/><path class="cls-20" d="M35.48,48.39a1.05,1.05,0,0,0,.16-.4,2.62,2.62,0,0,0,.14-.91.68.68,0,0,1,.14.23,6.13,6.13,0,0,1,.18.61,1.13,1.13,0,0,1-.17.73,14.85,14.85,0,0,0,4.75,2.59,16.08,16.08,0,0,0,5.86.6A17.73,17.73,0,0,0,52,51c1.64-.57,3.8-1.91,3.79-3.85h0c.09,1.5-1,2.58-2.2,3.36a12,12,0,0,1-5.88,1.61c-4.16.4-8.74-.24-11.84-3.32l-.06.09a1.65,1.65,0,0,1-1.46.58A2.05,2.05,0,0,0,35.48,48.39Z"/><path class="cls-20" d="M45.09,41.12a1.05,1.05,0,0,0,.07.31,1.49,1.49,0,0,0,.51.71,1.41,1.41,0,0,0,.57.24,1.88,1.88,0,0,0,.67,0l.16,0,.08,0h0a.29.29,0,0,1,.14.11,1,1,0,0,1,.14.54,2,2,0,0,1-.35,1.16,1.54,1.54,0,0,1-.85.62,2.18,2.18,0,0,1-.8.08l-.31,0,.08,0a1,1,0,0,0,.22.08,2.17,2.17,0,0,0,.86.07,1.64,1.64,0,0,0,1.09-.63A2.24,2.24,0,0,0,47.87,43a1.35,1.35,0,0,0-.23-.77.64.64,0,0,0-.41-.25H47.1L47,42l-.16,0a1.91,1.91,0,0,1-.57.06,1.42,1.42,0,0,1-.48-.14,1.49,1.49,0,0,1-.57-.54A1.9,1.9,0,0,1,45.09,41.12Z"/><path class="cls-39" d="M49.27,31.81c.08-.22,0-.47.09-.7a1.25,1.25,0,0,1,1.17-1,2,2,0,0,1,1.77.93,1,1,0,0,1,.22.29l.13.22s0,.07,0,0l-.06-.05c0,.06-.1.05-.13,0A2.21,2.21,0,0,0,50.85,31a1.13,1.13,0,0,0-1.1.56,2.06,2.06,0,0,1-.21.48C49.44,32.15,49.22,32,49.27,31.81Z"/><path class="cls-39" d="M34.6,32.84a2.17,2.17,0,0,1,2,.86l.09.06a.14.14,0,0,1,0,.16l0,0s0,.06,0,0h-.09c-1.18-.4-3-.46-3.36,1,0,.15-.2,0-.21-.08A1.86,1.86,0,0,1,34.6,32.84Z"/><path class="cls-40" d="M50.34,36.7c.35,1.29,1.08,2.21,1.65,2.06s.74-1.32.39-2.61-1.08-2.21-1.64-2S50,35.41,50.34,36.7Z"/><path class="cls-23" d="M51.25,35.41c.13.38.38.64.54.58s.2-.42.06-.8-.38-.64-.55-.57S51.11,35,51.25,35.41Z"/><path class="cls-40" d="M34.86,39.72c.34,1.29,1.08,2.21,1.64,2.06s.74-1.31.4-2.6S35.82,37,35.25,37.12,34.51,38.44,34.86,39.72Z"/><path class="cls-23" d="M35.76,38.43c.14.38.38.65.55.59s.19-.42.06-.8-.38-.64-.55-.58S35.63,38.06,35.76,38.43Z"/><path class="cls-41" d="M30.82,42.74c-.16.75,1.17,1.68,3,2.06s3.4.09,3.56-.66-1.17-1.67-3-2.06S31,42,30.82,42.74Z"/><path class="cls-41" d="M53.34,40.59c.53.56,2,0,3.37-1.3s2-2.76,1.46-3.31-2,0-3.38,1.3S52.81,40,53.34,40.59Z"/><g class="cls-33"><path class="cls-42" d="M37.11,70.42l-.2.12.14-.17S40.53,64,42.52,62c0,0-5.78,17.7-8.18,30.23a37.3,37.3,0,0,1-5.25-2.69S34.71,73.92,37.11,70.42Z"/></g></g></g></g></svg>