<svg xmlns="http://www.w3.org/2000/svg" xmlns:xlink="http://www.w3.org/1999/xlink" viewBox="0 0 100.71 97.75"><defs><style>.cls-1{fill:none;}.cls-2{isolation:isolate;}.cls-3{fill:#f39f00;}.cls-4{fill:#fffce7;}.cls-5{clip-path:url(#clip-path);}.cls-6{mix-blend-mode:multiply;}.cls-7{fill:#f4d9bf;}.cls-8{fill:#cdb6a0;}</style><clipPath id="clip-path" transform="translate(2.96)"><circle class="cls-1" cx="48.87" cy="48.87" r="48.87" transform="translate(-7.2 89.29) rotate(-80.78)"/></clipPath></defs><g class="cls-2"><g id="Calque_2" data-name="Calque 2"><g id="Layer_1" data-name="Layer 1"><circle class="cls-3" cx="48.87" cy="48.87" r="48.87" transform="translate(-4.24 89.29) rotate(-80.78)"/><path class="cls-4" d="M27.91,14S38.18,32.47,42.37,29.19s7-19.16,7-19.16,3.6,20.8,10,16.24l7.84-10.76S60.61,31.2,65.71,32.29,86.5,25.91,86.5,25.91,66.26,39.22,70.27,44.14s18.06,5.48,18.06,5.48-19,4.74-15.68,11.85a115.56,115.56,0,0,0,9.48,15.68s-12.95-10.76-17.33-8-1.64,14.22-1.64,14.22S54,64.75,48.75,67.12s-15.68,23-15.68,23,4.38-23.71-2.37-25.71S7.54,66.76,7.54,66.76s17.87-13.31,17-18.42S13,35.39,13,35.39s14.88,6.11,18,2.55C37.27,31,27.91,14,27.91,14Z" transform="translate(2.96)"/><g class="cls-5"><g class="cls-6"><path class="cls-7" d="M46,44.86S78.83,34.5,75.12,29.23,36.94,38,36.87,38c.12-.23.27-.45.39-.69l-.08.06c4.91-9.54,4.33-18.71,2.61-19.09s-4.1-1.76-7.42,10.15a35.2,35.2,0,0,1-10.6,16.87c0-.15,0-.25,0-.25a1.94,1.94,0,0,0-.39.24,3.76,3.76,0,0,0-.83.88l-.09.13c-6.4-1-16.67-2.75-22.65-4.11V58.53c7.83,1.76,18.16,3.41,22.25,3.9,4.69,18.54,25,9.94,25,9.94s24,8.8,24.21,5.47S51.5,68.28,51.5,68.28s27.72,1,27.33-3.52S51.7,55.59,51.7,55.59,81,52.86,80,48,46,44.86,46,44.86Z" transform="translate(2.96)"/></g><path class="cls-7" d="M80,45.23c-1-4.88-34-3.12-34-3.12S78.83,31.75,75.12,26.48s-38.26,8.8-38.26,8.8c5.27-9.77,4.68-19.34,2.93-19.73s-4.1-1.76-7.42,10.15A34.47,34.47,0,0,1,20.51,43.58c-6.41-1-17.47-4-23.47-5.4V54.49c7.83,1.77,18.94,4.7,23,5.19,4.69,18.54,25,9.94,25,9.94s24,8.8,24.21,5.47S51.5,65.53,51.5,65.53s27.72,1,27.33-3.52S51.7,52.84,51.7,52.84,81,50.11,80,45.23Z" transform="translate(2.96)"/><path class="cls-8" d="M37.26,34.58a36.7,36.7,0,0,1-2.33,3.82l0-.91a15.66,15.66,0,0,1,1.37,1.92,14.15,14.15,0,0,1,1,2.15A11.47,11.47,0,0,1,38,43.9a8.11,8.11,0,0,1,.09,1.21A8.65,8.65,0,0,1,38,46.36a12.39,12.39,0,0,1-.27,1.24l-.47,1.18a10.55,10.55,0,0,1-.69,1,7.72,7.72,0,0,1-1.77,1.66c-.33.21-.68.41-1,.6a4.62,4.62,0,0,1-1.09.41c-.36.13-.73.23-1.09.33l.85-.75a9.59,9.59,0,0,0,.82-.72c.25-.27.48-.53.74-.77a5.36,5.36,0,0,0,.61-.83,3.77,3.77,0,0,0,.53-.85c.13-.31.28-.59.39-.88l.27-.93.11-1a6.43,6.43,0,0,0,0-1,5.34,5.34,0,0,0-.11-1,8.57,8.57,0,0,0-.44-2,20.55,20.55,0,0,0-1.6-3.86l-.33-.6.36-.32A35.62,35.62,0,0,1,37.26,34.58Z" transform="translate(2.96)"/><path class="cls-8" d="M21.78,42.32s0,.62-.06,1.56c0,.42,0,.91,0,1.4,0,.25.06.5,0,.75a1.84,1.84,0,0,0,.05.74l.07.73a3.5,3.5,0,0,0,.15.73,5,5,0,0,1,.14.69,2.72,2.72,0,0,0,.19.65,8.61,8.61,0,0,1,.38,1.52,5.18,5.18,0,0,1-1.42-.84,1.89,1.89,0,0,1-.58-.58,7.87,7.87,0,0,1-.49-.77c-.13-.3-.39-.56-.41-.91l-.18-1a5.49,5.49,0,0,1,.17-2,5.27,5.27,0,0,1,.77-1.54,3.76,3.76,0,0,1,.83-.88A1.94,1.94,0,0,1,21.78,42.32Z" transform="translate(2.96)"/></g></g></g></g></svg>