<svg xmlns="http://www.w3.org/2000/svg" xmlns:xlink="http://www.w3.org/1999/xlink" viewBox="0 0 102.84 97.75"><defs><style>.cls-1{fill:none;}.cls-2{isolation:isolate;}.cls-3{fill:#f39f00;}.cls-4{fill:#fffce7;}.cls-5{clip-path:url(#clip-path);}.cls-6{mix-blend-mode:multiply;}.cls-7{fill:#f4d9bf;}.cls-8{fill:#cdb6a0;}</style><clipPath id="clip-path" transform="translate(5.09)"><circle class="cls-1" cx="48.87" cy="48.87" r="48.87" transform="translate(-14.98 22.42) rotate(-22.5)"/></clipPath></defs><g class="cls-2"><g id="Calque_2" data-name="Calque 2"><g id="Layer_1" data-name="Layer 1"><circle class="cls-3" cx="53.97" cy="48.87" r="48.87"/><path class="cls-4" d="M27.91,13.7S38.18,32.2,42.37,28.91s7-19.16,7-19.16S53,30.55,59.33,26l7.84-10.76S60.61,30.92,65.71,32,86.5,25.63,86.5,25.63,66.26,38.94,70.27,43.87s18.06,5.47,18.06,5.47-19,4.74-15.68,11.85a116,116,0,0,0,9.48,15.69s-12.95-10.76-17.33-8-1.64,14.23-1.64,14.23S54,64.48,48.75,66.85s-15.68,23-15.68,23,4.38-23.7-2.37-25.71S7.54,66.48,7.54,66.48s17.87-13.31,17-18.42S13,35.11,13,35.11s14.88,6.11,18,2.56C37.27,30.74,27.91,13.7,27.91,13.7Z" transform="translate(5.09)"/><g class="cls-5"><g class="cls-6"><path class="cls-7" d="M58.1,35.71c-5.73-9-14.57-1.82-27,3A318.66,318.66,0,0,1-2,26.71L-5.09,47.19c14.87,5,27.2,8.09,34.73,8.65C21,73.27,35.7,81.48,43,80.09c6.7,4.9,15,5.8,16.33-2.85C68.22,74.33,67,68.15,67,68.15s7.44-4.9,5.66-11.88C83.15,50.06,77,41.37,58.1,35.71Z" transform="translate(5.09)"/></g><path class="cls-7" d="M58.1,31.67c-5.73-9-14.57-1.82-27,3A316.38,316.38,0,0,1-2,22.67L-5.09,43.16c14.87,5,27.2,8.08,34.73,8.64C21,69.23,35.7,77.44,43,76.06,49.67,81,58,81.85,59.3,73.2,68.22,70.29,67,64.11,67,64.11s7.44-4.9,5.66-11.88C83.15,46,77,37.33,58.1,31.67Z" transform="translate(5.09)"/><path class="cls-8" d="M58.1,31.67s.14.18.42.49a10.47,10.47,0,0,1,1.07,1.45,17.29,17.29,0,0,1,1.29,2.53,11.34,11.34,0,0,1,.83,3.66,16.76,16.76,0,0,1-.39,4.4c-.29,1.51-.63,3.08-1.07,4.68a54.63,54.63,0,0,1-3.6,9.9,15.73,15.73,0,0,1-1.51,2.41,4.92,4.92,0,0,1-1.23,1.15,2.17,2.17,0,0,1-1.12.39,2.1,2.1,0,0,1-.47,0l-.16,0-.31-.08a5.24,5.24,0,0,1-2.58-2A10.36,10.36,0,0,1,48,58.13a19.26,19.26,0,0,1-.81-9.3,28.94,28.94,0,0,1,.74-3.59c.29-1,.59-1.94.83-2.68.56-1.44.91-2.24.91-2.24s-.16.86-.48,2.36a39.86,39.86,0,0,0-.69,6.26,20.2,20.2,0,0,0,1.35,8.43A8.22,8.22,0,0,0,51,59.3a4.1,4.1,0,0,0,1.38,1.15l.31.07.16,0c-.24,0-.08,0-.15,0l.09-.05a3.11,3.11,0,0,0,.64-.66,13.86,13.86,0,0,0,1.25-2.07,67.09,67.09,0,0,0,3.7-9.42c.49-1.56,1-3.06,1.34-4.5a18.2,18.2,0,0,0,.74-4,13.54,13.54,0,0,0-1.21-6A16,16,0,0,0,58.1,31.67Z" transform="translate(5.09)"/><path class="cls-8" d="M72.69,52.23a6.9,6.9,0,0,1-2.23.84A10,10,0,0,1,68,53.3a10.61,10.61,0,0,1-2.79-.42,9.22,9.22,0,0,1-2.6-1.2,4.94,4.94,0,0,1-1-.8,5.37,5.37,0,0,1-.81-.85,6.43,6.43,0,0,1-1.16-2.09s.83.5,2,1.08a19.17,19.17,0,0,0,2,.9c.35.17.74.27,1.12.42a8.54,8.54,0,0,0,1.18.36,44.37,44.37,0,0,0,4.56,1.07C71.74,52,72.69,52.23,72.69,52.23Z" transform="translate(5.09)"/><path class="cls-8" d="M69,41.48a4.82,4.82,0,0,1-1.28.59A8.78,8.78,0,0,1,65,42.4a8.17,8.17,0,0,1-2.72-.63A5.32,5.32,0,0,1,61,41.06a4.83,4.83,0,0,1,1.28-.58,7.81,7.81,0,0,1,2.77-.34,8.12,8.12,0,0,1,2.72.63A5,5,0,0,1,69,41.48Z" transform="translate(5.09)"/><path class="cls-8" d="M67,64.11a5.6,5.6,0,0,1-2.1.84,4.62,4.62,0,0,1-1.09.16,6.14,6.14,0,0,1-1.22,0A10.06,10.06,0,0,1,60,64.68c-.44-.16-.86-.33-1.29-.48a7.76,7.76,0,0,1-1.12-.68,11.66,11.66,0,0,1-1-.7,4,4,0,0,1-.77-.78,9.78,9.78,0,0,1-1.29-1.84,11.78,11.78,0,0,1,2,.78,8.58,8.58,0,0,0,.91.39c.34.12.68.23,1,.37a15.17,15.17,0,0,0,2.18.77,22.5,22.5,0,0,0,2.22.66l2,.49Z" transform="translate(5.09)"/><path class="cls-8" d="M59.3,73.2a14.75,14.75,0,0,1-3.45-.34,17.93,17.93,0,0,1-3.42-1,13.82,13.82,0,0,1-3.64-2.15A8.61,8.61,0,0,1,47.25,68a6.38,6.38,0,0,1-1-2.08,5.36,5.36,0,0,1,0-2.19A4.53,4.53,0,0,1,47,62a6.79,6.79,0,0,1,.88-1.2c.32-.31.61-.54.84-.74.48-.39.76-.6.76-.6l-.4.87c-.13.27-.3.58-.47.95a11.11,11.11,0,0,0-.4,1.23,3.9,3.9,0,0,0-.21,1.4c-.12.5.19,1,.21,1.45A6.58,6.58,0,0,0,49,66.68a5.78,5.78,0,0,0,1.23,1.24A13.43,13.43,0,0,0,51.72,69c.56.29,1,.7,1.59,1,1,.6,2.08,1.14,3,1.61Z" transform="translate(5.09)"/><path class="cls-8" d="M47.37,63.15s-.82.68-1.82,1.67c-.25.26-.5.54-.76.83s-.48.64-.75.94A8.34,8.34,0,0,0,43,68.81,8,8,0,0,0,42.64,70c0,.42-.1.83-.12,1.25s0,.81,0,1.2.1.77.12,1.13c0,.72.22,1.31.25,1.76s.06.72.06.72-.18-.18-.47-.53A6.67,6.67,0,0,1,41.42,74a9.9,9.9,0,0,1-.54-1.17c-.12-.44-.26-.92-.35-1.43a13.88,13.88,0,0,1-.08-1.61,10.63,10.63,0,0,1,.34-1.66,7.27,7.27,0,0,1,.73-1.54,7.6,7.6,0,0,1,1-1.28,7.73,7.73,0,0,1,2.3-1.53A6,6,0,0,1,47.37,63.15Z" transform="translate(5.09)"/></g></g></g></g></svg>