<svg xmlns="http://www.w3.org/2000/svg" xmlns:xlink="http://www.w3.org/1999/xlink" viewBox="0 0 104.68 97.75"><defs><style>.cls-1{fill:none;}.cls-2{isolation:isolate;}.cls-3{fill:#f39f00;}.cls-4{fill:#fffce7;}.cls-5{clip-path:url(#clip-path);}.cls-6{mix-blend-mode:multiply;}.cls-7{fill:#f4d9bf;}.cls-8{fill:#cdb6a0;}</style><clipPath id="clip-path" transform="translate(6.93)"><circle class="cls-1" cx="48.87" cy="48.87" r="48.87"/></clipPath></defs><g class="cls-2"><g id="Calque_2" data-name="Calque 2"><g id="Layer_1" data-name="Layer 1"><circle class="cls-3" cx="55.8" cy="48.87" r="48.87"/><path class="cls-4" d="M28.28,10.61S38.54,29.1,42.74,25.82s7-19.17,7-19.17,3.59,20.81,10,16.25l7.84-10.76S61,27.83,66.08,28.92s20.79-6.38,20.79-6.38S66.63,35.85,70.64,40.77s18,5.48,18,5.48S69.73,51,73,58.1a115.56,115.56,0,0,0,9.48,15.68S69.54,63,65.17,65.76,63.53,80,63.53,80s-9.12-18.6-14.41-16.23-15.68,23-15.68,23S37.81,63,31.06,61,7.9,63.39,7.9,63.39,25.78,50.07,24.87,45,13.38,32,13.38,32s14.87,6.1,18,2.55C37.63,27.64,28.28,10.61,28.28,10.61Z" transform="translate(6.93)"/><g class="cls-5"><g class="cls-6"><path class="cls-7" d="M80.76,64.89c-.46-7.33-29-17.32-29-17.32S88,46.4,84.65,39.81,47,38,47,38a38.41,38.41,0,0,0-3.78-2.12l0-.1,0,.09a28.56,28.56,0,0,0-7.37-2.58c-5.59-1-10.39,7.94-10.39,7.94L.62,32.32l-7.55,12s4.81,2.74,25,9.84c-4.23,17,16,17.3,19.27,15.63,2.91.51,7.67-.91,7.45-4,2.79-.26,3.78-7.35,3.78-7.35S81.23,72.23,80.76,64.89Z" transform="translate(6.93)"/></g><path class="cls-7" d="M.62,30.26l24.77,8.88s4.8-8.91,10.39-7.93S47,35.91,47,35.91s34.35-4.75,37.7,1.84-32.87,7.76-32.87,7.76,28.52,10,29,17.32-32.15-6.38-32.15-6.38-1,7.09-3.78,7.35c.22,3-4.54,4.46-7.45,4-3.29,1.67-23.5,1.4-19.27-15.63-20.23-7.1-25-9.84-25-9.84Z" transform="translate(6.93)"/><path class="cls-8" d="M43.13,33.69s.35.66.89,1.85,1.28,2.91,2,5c.35,1.07.71,2.24,1,3.49a33.26,33.26,0,0,1,.84,4,29.63,29.63,0,0,1,.38,4.39,18.17,18.17,0,0,1-.57,4.6A7.3,7.3,0,0,1,45,61.18a4.82,4.82,0,0,1-1.21.58,5.19,5.19,0,0,1-1.35.1,4.68,4.68,0,0,1-2.34-.93,7.31,7.31,0,0,1-2.4-3.64,16.28,16.28,0,0,1-.57-3.68c-.2-2.21-.25-4.08-.34-5.38,0-.65-.09-1.14-.12-1.49s-.07-.54-.07-.54l.15.51a10.3,10.3,0,0,1,.37,1.49c.23,1.27.61,3.09,1,5.29a15.74,15.74,0,0,0,.78,3.38A6.69,6.69,0,0,0,41,59.72a2.63,2.63,0,0,0,3.11.1l.35-.26.3-.34a3.92,3.92,0,0,0,.54-.77,4.7,4.7,0,0,0,.41-.88,4.87,4.87,0,0,0,.33-1,17,17,0,0,0,.56-4.17,35.55,35.55,0,0,0-.21-4.16c-.17-1.36-.34-2.68-.57-3.92s-.48-2.42-.74-3.49c-.53-2.15-1-4-1.36-5.2S43.13,33.69,43.13,33.69Z" transform="translate(6.93)"/><path class="cls-8" d="M37.58,51.5l-1.49-.27a27.55,27.55,0,0,0-3.92-.45,14.52,14.52,0,0,0-2.52.14,3.33,3.33,0,0,0-2.1,1.1,1.18,1.18,0,0,0-.25.5s-.11.26-.08.16l0,.4,0,.39.08.24a1.7,1.7,0,0,0,.18.52,6.09,6.09,0,0,0,1.84,2.2,16.55,16.55,0,0,0,2.57,1.78c.91.52,1.82,1,2.73,1.47,1.83.88,3.59,1.6,5.11,2.22S42.48,63,43.4,63.28s1.43.52,1.43.52a40,40,0,0,1-5.45-1A38.11,38.11,0,0,1,33.94,61,25.12,25.12,0,0,1,31,59.63a18.51,18.51,0,0,1-2.84-1.9,7.52,7.52,0,0,1-2.26-2.86,2.86,2.86,0,0,1-.28-1l-.06-.56.05-.39.06-.4a1.86,1.86,0,0,1,.19-.56,2.54,2.54,0,0,1,.51-.85,4.51,4.51,0,0,1,3.11-1.44,11.89,11.89,0,0,1,2.79.16,21.53,21.53,0,0,1,3.9,1.09A14.8,14.8,0,0,1,37.58,51.5Z" transform="translate(6.93)"/><path class="cls-8" d="M28.78,57s-.19.2-.49.59a6.24,6.24,0,0,0-.94,1.67c0,.17-.09.35-.13.55s0,.36,0,.56.09.37.12.56.19.36.28.55a5.16,5.16,0,0,0,.87,1.05,9.29,9.29,0,0,0,1.19.94,13.28,13.28,0,0,0,1.34.86c.47.24.91.53,1.36.77s.9.46,1.33.68.81.45,1.19.62a24.82,24.82,0,0,1,2.49,1.35,23.33,23.33,0,0,1-2.82-.43,26.25,26.25,0,0,1-2.82-.86c-.49-.21-1-.44-1.53-.7a11.78,11.78,0,0,1-1.51-.9,9.14,9.14,0,0,1-1.39-1.18,3.28,3.28,0,0,1-.58-.74,3.51,3.51,0,0,1-.47-.8,6.58,6.58,0,0,1-.29-.89c0-.32,0-.62,0-.91s.11-.57.19-.84.23-.46.35-.67a4.86,4.86,0,0,1,1.58-1.5A3.69,3.69,0,0,1,28.78,57Z" transform="translate(6.93)"/></g></g></g></g></svg>