<svg xmlns="http://www.w3.org/2000/svg" xmlns:xlink="http://www.w3.org/1999/xlink" viewBox="0 0 100.71 97.75"><defs><style>.cls-1{fill:none;}.cls-2{isolation:isolate;}.cls-3{fill:#aad9d9;}.cls-4{fill:#fffce7;}.cls-5{clip-path:url(#clip-path);}.cls-6{mix-blend-mode:multiply;}.cls-7{fill:#f4d9bf;}.cls-8{fill:#cdb6a0;}</style><clipPath id="clip-path"><circle class="cls-1" cx="48.87" cy="48.87" r="48.87" transform="translate(-7.2 8.46) rotate(-9.22)"/></clipPath></defs><g class="cls-2"><g id="Calque_2" data-name="Calque 2"><g id="Layer_1" data-name="Layer 1"><circle class="cls-3" cx="48.87" cy="48.87" r="48.87" transform="translate(-7.2 8.46) rotate(-9.22)"/><path class="cls-4" d="M69.83,14S59.57,32.47,55.38,29.19,48.4,10,48.4,10s-3.6,20.8-10,16.24L30.57,15.51S37.14,31.2,32,32.29s-20.79-6.38-20.79-6.38S31.49,39.22,27.47,44.14s-18,5.48-18,5.48,19,4.74,15.68,11.85a115.56,115.56,0,0,1-9.48,15.68s13-10.76,17.33-8,1.64,14.22,1.64,14.22S43.7,64.75,49,67.12s15.69,23,15.69,23S60.3,66.39,67.05,64.39s23.16,2.37,23.16,2.37-17.87-13.31-17-18.42,11.49-13,11.49-13S69.86,41.5,66.68,37.94C60.48,31,69.83,14,69.83,14Z"/><g class="cls-5"><g class="cls-6"><path class="cls-3" d="M51.71,44.86S18.92,34.5,22.63,29.23,60.81,38,60.88,38c-.13-.23-.27-.45-.39-.69l.08.06C55.65,27.85,56.24,18.68,58,18.3s4.1-1.76,7.42,10.15A35.12,35.12,0,0,0,76,45.32c0-.15,0-.25,0-.25a1.94,1.94,0,0,1,.39.24,3.76,3.76,0,0,1,.83.88l.09.13c6.39-1,16.67-2.75,22.65-4.11V58.53c-7.83,1.76-18.16,3.41-22.25,3.9-4.69,18.54-25,9.94-25,9.94s-24,8.8-24.21,5.47,17.77-9.56,17.77-9.56-27.72,1-27.33-3.52,27.13-9.17,27.13-9.17S16.77,52.86,17.74,48,51.71,44.86,51.71,44.86Z"/></g><path class="cls-7" d="M17.74,45.23c1-4.88,34-3.12,34-3.12S18.92,31.75,22.63,26.48s38.26,8.8,38.26,8.8C55.61,25.51,56.21,15.94,58,15.55s4.1-1.76,7.42,10.15A34.42,34.42,0,0,0,77.23,43.58c6.41-1,17.48-4,23.48-5.4V54.49c-7.83,1.77-18.94,4.7-23,5.19-4.69,18.54-25,9.94-25,9.94s-24,8.8-24.21,5.47,17.77-9.56,17.77-9.56S18.53,66.5,18.92,62s27.13-9.17,27.13-9.17S16.77,50.11,17.74,45.23Z"/><path class="cls-8" d="M60.49,34.58a36.7,36.7,0,0,0,2.33,3.82l0-.91a14.66,14.66,0,0,0-1.37,1.92,14.15,14.15,0,0,0-1,2.15,11.47,11.47,0,0,0-.61,2.34,7,7,0,0,0-.09,1.21,8.65,8.65,0,0,0,.06,1.25A12.38,12.38,0,0,0,60,47.6l.48,1.18a10.55,10.55,0,0,0,.69,1,4.73,4.73,0,0,0,.82.91,5.59,5.59,0,0,0,1,.75c.33.21.68.41,1,.6a4.62,4.62,0,0,0,1.09.41c.35.13.73.23,1.09.33l-.85-.75a8.27,8.27,0,0,1-.82-.72c-.25-.27-.49-.53-.74-.77a4.78,4.78,0,0,1-.61-.83,3.77,3.77,0,0,1-.53-.85c-.13-.31-.28-.59-.4-.88l-.26-.93-.12-1a9.52,9.52,0,0,1,.1-1.95,9.15,9.15,0,0,1,.45-2A20.55,20.55,0,0,1,64,38.36l.33-.6-.36-.32A36.87,36.87,0,0,0,60.49,34.58Z"/><path class="cls-8" d="M76,42.32s0,.62.06,1.56c0,.42,0,.91,0,1.4,0,.25-.06.5,0,.75a1.84,1.84,0,0,1,0,.74l-.07.73a3.5,3.5,0,0,1-.15.73,5,5,0,0,0-.14.69,4.11,4.11,0,0,1-.19.65,8.61,8.61,0,0,0-.38,1.52,5.18,5.18,0,0,0,1.42-.84,1.89,1.89,0,0,0,.58-.58,6.32,6.32,0,0,0,.48-.77c.13-.3.4-.56.42-.91l.18-1A5.48,5.48,0,0,0,78,45a5,5,0,0,0-.76-1.54,3.76,3.76,0,0,0-.83-.88A1.94,1.94,0,0,0,76,42.32Z"/></g></g></g></g></svg>