<svg xmlns="http://www.w3.org/2000/svg" xmlns:xlink="http://www.w3.org/1999/xlink" viewBox="0 0 102.84 97.75"><defs><style>.cls-1{fill:none;}.cls-2{isolation:isolate;}.cls-3{clip-path:url(#clip-path);}.cls-4,.cls-6{fill:#aad9d9;}.cls-5{fill:#fffce7;}.cls-6{mix-blend-mode:multiply;}.cls-7{fill:#f4d9bf;}.cls-8{fill:#cdb6a0;}</style><clipPath id="clip-path"><circle class="cls-1" cx="48.87" cy="48.87" r="48.87" transform="translate(-14.98 75.32) rotate(-67.5)"/></clipPath></defs><g class="cls-2"><g id="Calque_2" data-name="Calque 2"><g id="Layer_1" data-name="Layer 1"><g class="cls-3"><circle class="cls-4" cx="48.87" cy="48.87" r="48.87"/><path class="cls-5" d="M69.83,13.7S59.57,32.2,55.38,28.91s-7-19.16-7-19.16-3.6,20.8-10,16.25L30.57,15.24S37.14,30.92,32,32s-20.79-6.38-20.79-6.38S31.49,38.94,27.47,43.87s-18,5.47-18,5.47,19,4.74,15.68,11.85a115.56,115.56,0,0,1-9.48,15.68s13-10.75,17.33-8,1.64,14.23,1.64,14.23S43.7,64.48,49,66.85s15.69,23,15.69,23-4.38-23.7,2.37-25.71,23.16,2.37,23.16,2.37-17.87-13.31-17-18.42,11.49-13,11.49-13-14.88,6.11-18.06,2.56C60.48,30.74,69.83,13.7,69.83,13.7Z"/><path class="cls-6" d="M39.65,35.71c5.72-9,14.57-1.82,27,3a318.66,318.66,0,0,0,33.17-12l3.06,20.48c-14.87,5-27.2,8.09-34.74,8.65,8.62,17.43-6,25.64-13.32,24.25-6.7,4.9-15,5.8-16.34-2.85-8.91-2.91-7.72-9.09-7.72-9.09s-7.44-4.9-5.66-11.88C14.6,50.06,20.71,41.37,39.65,35.71Z"/><path class="cls-7" d="M39.65,31.67c5.72-9,14.57-1.82,27,3a316.38,316.38,0,0,0,33.17-12l3.06,20.49c-14.87,5-27.2,8.08-34.74,8.64,8.62,17.43-6,25.64-13.32,24.26-6.7,4.89-15,5.79-16.34-2.86-8.91-2.91-7.72-9.09-7.72-9.09s-7.44-4.9-5.66-11.88C14.6,46,20.71,37.33,39.65,31.67Z"/><path class="cls-8" d="M39.65,31.67s-.14.18-.42.49a10.47,10.47,0,0,0-1.07,1.45,15.51,15.51,0,0,0-1.29,2.53A11.08,11.08,0,0,0,36,39.8a16.76,16.76,0,0,0,.39,4.4c.28,1.51.63,3.08,1.07,4.68a53.89,53.89,0,0,0,3.6,9.9,15,15,0,0,0,1.51,2.41,5,5,0,0,0,1.22,1.15,2.25,2.25,0,0,0,1.12.39,2.08,2.08,0,0,0,.47,0l.16,0,.32-.08a5.28,5.28,0,0,0,2.58-2,10.36,10.36,0,0,0,1.3-2.45,19.25,19.25,0,0,0,.8-9.3,27.3,27.3,0,0,0-.73-3.59c-.29-1-.59-1.94-.83-2.68-.57-1.44-.91-2.24-.91-2.24s.15.86.48,2.36a39.86,39.86,0,0,1,.69,6.26,20.36,20.36,0,0,1-1.35,8.43A8.22,8.22,0,0,1,46.8,59.3a4.19,4.19,0,0,1-1.38,1.15l-.31.07-.16,0c.24,0,.08,0,.15,0s0,0-.09-.05a3.38,3.38,0,0,1-.65-.66,14.72,14.72,0,0,1-1.24-2.07,67.09,67.09,0,0,1-3.7-9.42c-.49-1.56-1-3.06-1.35-4.5a18.15,18.15,0,0,1-.73-4,13.54,13.54,0,0,1,1.21-6A16,16,0,0,1,39.65,31.67Z"/><path class="cls-8" d="M25.06,52.23a6.9,6.9,0,0,0,2.23.84,9.9,9.9,0,0,0,2.42.23,10.62,10.62,0,0,0,2.8-.42,9.16,9.16,0,0,0,2.59-1.2,4.94,4.94,0,0,0,1-.8A4.59,4.59,0,0,0,37,50a6.61,6.61,0,0,0,1.17-2.09s-.84.5-2,1.08a19.4,19.4,0,0,1-2,.9c-.34.17-.74.27-1.11.42a9.46,9.46,0,0,1-1.18.36,45,45,0,0,1-4.56,1.07C26,52,25.06,52.23,25.06,52.23Z"/><path class="cls-8" d="M28.73,41.48a5,5,0,0,0,1.29.59,8.78,8.78,0,0,0,2.77.33,8.17,8.17,0,0,0,2.72-.63,5.1,5.1,0,0,0,1.2-.71,4.66,4.66,0,0,0-1.27-.58,7.81,7.81,0,0,0-2.77-.34,8.06,8.06,0,0,0-2.72.63A5.26,5.26,0,0,0,28.73,41.48Z"/><path class="cls-8" d="M30.72,64.11a5.6,5.6,0,0,0,2.1.84,4.61,4.61,0,0,0,1.08.16,6.24,6.24,0,0,0,1.23,0,10.06,10.06,0,0,0,2.62-.48c.43-.16.86-.33,1.29-.48a7.76,7.76,0,0,0,1.12-.68,11.66,11.66,0,0,0,1-.7,4,4,0,0,0,.77-.78,9.78,9.78,0,0,0,1.29-1.84,12,12,0,0,0-2,.78,7.6,7.6,0,0,1-.9.39c-.34.12-.68.23-1,.37a15.17,15.17,0,0,1-2.18.77c-.72.33-1.5.41-2.22.66l-2,.49Z"/><path class="cls-8" d="M38.44,73.2a14.85,14.85,0,0,0,3.46-.34,17.93,17.93,0,0,0,3.42-1A14,14,0,0,0,49,69.66,8.61,8.61,0,0,0,50.5,68a6.6,6.6,0,0,0,1-2.08,5.36,5.36,0,0,0,0-2.19,4.39,4.39,0,0,0-.7-1.72,6.78,6.78,0,0,0-.87-1.2c-.32-.31-.61-.54-.85-.74-.47-.39-.75-.6-.75-.6l.4.87.47.95a11.11,11.11,0,0,1,.4,1.23,3.69,3.69,0,0,1,.2,1.4c.13.5-.19,1-.21,1.45a6.11,6.11,0,0,1-.82,1.34,6,6,0,0,1-1.23,1.24A12.64,12.64,0,0,1,46,69c-.55.29-1,.7-1.58,1-1,.6-2.08,1.14-3,1.61Z"/><path class="cls-8" d="M50.37,63.15s.83.68,1.83,1.67l.76.83c.27.27.47.64.75.94a8.34,8.34,0,0,1,1.09,2.22A8,8,0,0,1,55.11,70c0,.42.09.83.12,1.25s0,.81,0,1.2-.1.77-.13,1.13c0,.72-.21,1.31-.24,1.76s-.06.72-.06.72.17-.18.47-.53A6.67,6.67,0,0,0,56.33,74a11.81,11.81,0,0,0,.54-1.17c.12-.44.25-.92.35-1.43a13.88,13.88,0,0,0,.08-1.61A11.92,11.92,0,0,0,57,68.1a7.27,7.27,0,0,0-.73-1.54,8.14,8.14,0,0,0-1-1.28,7.73,7.73,0,0,0-2.3-1.53A6,6,0,0,0,50.37,63.15Z"/></g></g></g></g></svg>