<svg xmlns="http://www.w3.org/2000/svg" xmlns:xlink="http://www.w3.org/1999/xlink" viewBox="0 0 104.68 97.75"><defs><style>.cls-1{fill:none;}.cls-2{isolation:isolate;}.cls-3{fill:#aad9d9;}.cls-4{fill:#fffce7;}.cls-5{clip-path:url(#clip-path);}.cls-6{mix-blend-mode:multiply;}.cls-7{fill:#f4d9bf;}.cls-8{fill:#cdb6a0;}</style><clipPath id="clip-path"><circle class="cls-1" cx="48.87" cy="48.87" r="48.87"/></clipPath></defs><g class="cls-2"><g id="Calque_2" data-name="Calque 2"><g id="Layer_1" data-name="Layer 1"><circle class="cls-3" cx="48.87" cy="48.87" r="48.87"/><path class="cls-4" d="M69.47,10.61S59.21,29.1,55,25.82,48,6.65,48,6.65s-3.6,20.81-10,16.25L30.21,12.14s6.57,15.69,1.46,16.78-20.79-6.38-20.79-6.38S31.12,35.85,27.11,40.77,9.05,46.25,9.05,46.25,28,51,24.74,58.1a115.56,115.56,0,0,1-9.48,15.68S28.2,63,32.58,65.76,34.22,80,34.22,80s9.12-18.6,14.41-16.23,15.68,23,15.68,23S59.93,63,66.68,61s23.16,2.37,23.16,2.37S72,50.07,72.88,45,84.37,32,84.37,32s-14.87,6.1-18.05,2.55C60.12,27.64,69.47,10.61,69.47,10.61Z"/><g class="cls-5"><g class="cls-6"><path class="cls-3" d="M17,64.89c.47-7.33,29-17.32,29-17.32S9.75,46.4,13.1,39.81,50.79,38,50.79,38a38.41,38.41,0,0,1,3.78-2.12l0-.1,0,.09A28.43,28.43,0,0,1,62,33.26c5.59-1,10.39,7.94,10.39,7.94l24.76-8.88,7.56,12s-4.81,2.74-25,9.84c4.23,17-16,17.3-19.27,15.63-2.92.51-7.67-.91-7.45-4-2.8-.26-3.78-7.35-3.78-7.35S16.52,72.23,17,64.89Z"/></g><path class="cls-7" d="M97.12,30.26,72.36,39.14S67.56,30.23,62,31.21s-11.18,4.7-11.18,4.7S16.44,31.16,13.1,37.75,46,45.51,46,45.51s-28.52,10-29,17.32,32.16-6.38,32.16-6.38,1,7.09,3.78,7.35c-.22,3,4.53,4.46,7.45,4,3.28,1.67,23.5,1.4,19.27-15.63,20.23-7.1,25-9.84,25-9.84Z"/><path class="cls-8" d="M54.62,33.69s-.36.66-.89,1.85a53.3,53.3,0,0,0-2,5c-.35,1.07-.71,2.24-1,3.49a35.34,35.34,0,0,0-.84,4,31.06,31.06,0,0,0-.37,4.39,18.62,18.62,0,0,0,.56,4.6,7.37,7.37,0,0,0,2.65,4.14,4.82,4.82,0,0,0,1.21.58,5.16,5.16,0,0,0,1.35.1,4.68,4.68,0,0,0,2.34-.93A7.31,7.31,0,0,0,60,57.29a16.86,16.86,0,0,0,.57-3.68c.19-2.21.25-4.08.33-5.38,0-.65.09-1.14.13-1.49s.07-.54.07-.54-.05.18-.16.51a12.15,12.15,0,0,0-.36,1.49c-.23,1.27-.61,3.09-1,5.29a15.74,15.74,0,0,1-.78,3.38,6.63,6.63,0,0,1-2.12,2.85,2.62,2.62,0,0,1-3.1.1l-.35-.26-.3-.34a3.92,3.92,0,0,1-.54-.77,4.7,4.7,0,0,1-.41-.88,4.87,4.87,0,0,1-.33-1,16.57,16.57,0,0,1-.56-4.17,35.55,35.55,0,0,1,.21-4.16c.16-1.36.33-2.68.57-3.92s.48-2.42.74-3.49c.53-2.15,1-4,1.36-5.2S54.62,33.69,54.62,33.69Z"/><path class="cls-8" d="M60.16,51.5l1.5-.27a27.55,27.55,0,0,1,3.92-.45,14.52,14.52,0,0,1,2.52.14A3.33,3.33,0,0,1,70.2,52a1.18,1.18,0,0,1,.25.5s.1.26.07.16l0,.4,0,.39-.08.24a1.7,1.7,0,0,1-.18.52,6.09,6.09,0,0,1-1.84,2.2,16.55,16.55,0,0,1-2.57,1.78c-.91.52-1.82,1-2.73,1.47-1.83.88-3.59,1.6-5.11,2.22S55.27,63,54.35,63.28s-1.43.52-1.43.52a40,40,0,0,0,5.45-1A38,38,0,0,0,63.8,61a24.37,24.37,0,0,0,2.93-1.4,18.12,18.12,0,0,0,2.85-1.9,7.5,7.5,0,0,0,2.25-2.86,2.86,2.86,0,0,0,.29-1l.06-.56-.05-.39-.06-.4a1.86,1.86,0,0,0-.19-.56,2.54,2.54,0,0,0-.51-.85,4.51,4.51,0,0,0-3.11-1.44,11.89,11.89,0,0,0-2.79.16,21.53,21.53,0,0,0-3.9,1.09C60.66,51.25,60.16,51.5,60.16,51.5Z"/><path class="cls-8" d="M69,57a6.63,6.63,0,0,1,.5.59,6.24,6.24,0,0,1,.94,1.67c0,.17.09.35.13.55s0,.36,0,.56-.09.37-.13.56-.19.36-.27.55a4.91,4.91,0,0,1-.88,1.05,8.08,8.08,0,0,1-1.19.94,12.11,12.11,0,0,1-1.33.86c-.47.24-.92.53-1.36.77s-.91.46-1.33.68-.81.45-1.19.62a24.82,24.82,0,0,0-2.49,1.35,23.33,23.33,0,0,0,2.82-.43A27,27,0,0,0,66,66.46c.49-.21,1-.44,1.52-.7a11.23,11.23,0,0,0,1.52-.9,9.65,9.65,0,0,0,1.39-1.18,3.28,3.28,0,0,0,.58-.74,3.15,3.15,0,0,0,.46-.8,5.42,5.42,0,0,0,.29-.89c0-.32,0-.62,0-.91s-.11-.57-.19-.84-.23-.46-.35-.67a4.88,4.88,0,0,0-1.59-1.5A3.69,3.69,0,0,0,69,57Z"/></g></g></g></g></svg>